<svg xmlns="http://www.w3.org/2000/svg" viewBox="0 0 649.02 442.63"><defs><style>.cls-1{fill:#97ca3f;}.cls-2{fill:#2f6d2f;}</style></defs><g id="trazos"><path class="cls-1" d="M396.2,456.18c-4.84-24.77-19.29-114.64,32.74-206.36,54.57-96.22,145.77-130.07,183.59-140.9,22.1-6.33,108.81-28.54,206.36,11.39,23.43,9.58,91.24,38.45,139.48,112.43,8.1,12.43,47.41,74.85,47,158-.22,40.65-9.87,72.32-8.54,72.59,1.76.35,24-53.47,22.77-116.71-2.07-105.35-68.22-178.27-92.51-202.09-119.57-117.28-286.11-85.72-294.6-84-23.27,4.81-166.73,37.16-227.71,175.05C359.94,336.89,387.94,431.24,396.2,456.18Z" transform="translate(-371.98 -55.38)"/><path class="cls-2" d="M1021,497.45c-1.12,4.13-67.09-15.49-158-25.61-36.87-4.11-66.35-5.38-90.37-6.41-52.47-2.25-91.88-1.4-121.69-.71-57.79,1.34-94,2.19-141.6,7.83-83.27,9.87-136,26.69-137.34,22.06C371,491,402.8,478.21,438.9,466.14c28.18-9.42,58.28-13.65,58.35-14.23,1.14-8.91-6.83-18-5.69-39.85.63-12.1,7.17-16.17,4.27-22.77-4.4-10-19.15-6.12-24.2-15.66-5.67-10.72,6.47-27.93,14.23-35.58,3-2.94,12.14-11.7,25.62-12.8a33.22,33.22,0,0,1,5.69,0,69.27,69.27,0,0,1-.71-14.95,59,59,0,0,1,2.85-15.65c1.65-5,3.49-8.12,7.11-14.24,6.22-10.49,9.33-15.74,12.81-15.65s6.23,4.76,10,11.39a66.51,66.51,0,0,1,5.69,14.23c1.73,5.62,2.64,8.55,2.84,12.81.31,6.26-1.18,9.33,0,10,1.86,1,6-6.31,14.24-12.81,6.18-4.87,11.65-6.9,19.92-10,13.49-5,22.59-8.38,27-4.27,3.58,3.3,2.54,9.95,1.43,17.08a43.48,43.48,0,0,1-7.12,18.5c-7.94,11.48-19.69,15.95-22.77,17.08-12.58,4.59-23.17,2.55-25.62,8.54a36.65,36.65,0,0,0-1.42,7.11c-.47,3.9-.7,5.86,0,7.12,1.86,3.37,8.15,2.22,15.65,2.84a56.77,56.77,0,0,1,19.93,5.7c4.2,1.94,15.4,7.13,22.77,18.5,3.08,4.75,4.34,8.82,5.69,8.54,1.77-.38,1-7.66,1.42-15.66.91-15.41,6.2-27,11.39-38.42,8.33-18.29,10.91-13.8,12.81-22.78,4.1-19.37-8.24-38.65-8.54-51.23a11.89,11.89,0,0,0-1.42-5.69c-1.74-3.11-4.69-4.62-7.12-5.7-8.87-3.92-12.48-2.72-19.92-5.69-4.32-1.72-8.29-3.3-11.39-7.12-5.1-6.27-1-10.11-5.69-19.92-3-6.34-6.26-7.81-8.54-15.66-1.12-3.83-1.2-6.42,0-8.53,1.63-2.87,5-3.77,7.11-4.27,14.1-3.4,22-5.31,34.16-2.85,9.55,1.93,11.94,4.58,17.08,2.85,5.88-2,6.53-6.72,11.39-11.39,7.45-7.17,17.77-7.15,38.42-7.12a138,138,0,0,1,34.16,4.27c7.87,2,11.85,3,17.08,5.7,13,6.57,19.75,16.17,28.46,28.46a95.19,95.19,0,0,1,10,19.93c2.37,6.32,2.45,8.46,1.43,10-3.14,4.56-13.51-1.55-18.51,2.84-5.46,4.81-.57,18.74,2.85,28.47,4.47,12.73,7.64,15.25,18.5,35.58,10,18.65,12.18,25.66,17.08,25.62,6.53-.06,12.09-12.58,12.81-14.24.57-1.32,1.72-4.22,2.85-11.38,1.76-11.21.57-14.46,1.42-19.93,2.33-14.93,16.52-24.64,24.19-29.88a50.51,50.51,0,0,1,18.51-8.54c6.11-1.32,6.77-.1,11.38-1.43,12.47-3.59,17.77-15.49,19.93-14.23s-2.36,14.29-2.85,15.66c-2.25,6.33-3.75,7.85-2.85,10,1.61,3.75,7.48,1.6,15.66,5.69,8.41,4.21,12.81,11.8,14.23,14.23,3,5.22,1.45,5.41,4.27,10,5.55,9,11.65,8.23,14.23,15.65a19,19,0,0,1,0,11.39c-.63,2.18-1.52,5.23-4.27,7.11-2.46,1.7-5.14,1.58-8.54,1.43-6.12-.27-8-2.3-12.81-1.43a15.48,15.48,0,0,0-4.27,1.43c-7.18,3.87-9.16,19-5.69,31.31,3,10.59,7.3,9.62,12.81,22.77,4.66,11.12,5.32,20.73,5.69,27,.8,13.34,1.36,22.73-4.27,31.31-4.74,7.24-10.75,9.1-10,12.81.73,3.43,6.45,4.52,17.08,7.11,0,0,18.13,4.44,35.58,10,9,2.86,15.15,5.48,25.62,10C1011.09,491.37,1021.43,495.8,1021,497.45Z" transform="translate(-371.98 -55.38)"/><path class="cls-2" d="M848.07,243.41c-6.25,3-7.37,1.39-14.23,4.27-5.46,2.3-5.53,3.65-14.24,8.54-3.27,1.84-6,3.12-11.38,5.69-9.68,4.6-19.74,8.92-19.93,8.54s4.68-2.27,11.39-7.11c2.28-1.65,2.72-2.14,5.69-4.27,4.08-2.93,6.78-4.56,8.54-5.7a70,70,0,0,0,15.66-14.23c5.75-7,6.76-11,7.11-12.81.45-2.37.89-4.67,0-7.11-1.62-4.45-6.28-5.57-17.08-10-9.8-4-14.8-6.07-19.92-10-5.82-4.42-10.81-10.26-10-11.38.56-.75,3.36,1.12,8.54,2.84,1.59.53,4.58,1.44,19.92,2.85,14.27,1.31,12.51.6,17.08,1.42,7.62,1.38,11.44,3.17,12.81,1.43,1.23-1.58-.4-4.92-2.85-10a38.08,38.08,0,0,0-4.27-7.11c-4.27-5.58-8.8-8.16-8.54-8.54s3.11,1.5,8.54,4.27c6.94,3.54,6.8,2.92,8.54,4.27,5.61,4.34,4.81,9,8.54,10,3.26.8,4.3-2.68,10-2.85,1.11,0,5.87-.17,8.54,2.85,1.93,2.17.76,3.72,2.85,5.69,2.55,2.41,7.2,2.88,7.11,2.85a47.41,47.41,0,0,0-8.54,2.85,21.61,21.61,0,0,0-7.11,5.69c-3.22,4.14-2,6.71-4.27,14.23a37.53,37.53,0,0,1-7.12,14.23A33.45,33.45,0,0,1,848.07,243.41Z" transform="translate(-371.98 -55.38)"/></g></svg>